<?xml version="1.0" encoding="utf-8"?>
<!-- Generator: Adobe Illustrator 27.5.0, SVG Export Plug-In . SVG Version: 6.00 Build 0)  -->
<svg version="1.1" xmlns="http://www.w3.org/2000/svg" xmlns:xlink="http://www.w3.org/1999/xlink" x="0px" y="0px"
	 viewBox="0 0 500 500" style="enable-background:new 0 0 500 500;" xml:space="preserve">
<g id="Background_Complete">
	<g>
		<rect y="382.398" style="fill:#EBEBEB;" width="500" height="0.25"/>
		<rect x="416.779" y="398.494" style="fill:#EBEBEB;" width="33.122" height="0.25"/>
		<rect x="322.527" y="401.208" style="fill:#EBEBEB;" width="8.693" height="0.25"/>
		<rect x="396.586" y="389.208" style="fill:#EBEBEB;" width="19.192" height="0.25"/>
		<rect x="52.459" y="390.888" style="fill:#EBEBEB;" width="43.193" height="0.25"/>
		<rect x="104.556" y="390.888" style="fill:#EBEBEB;" width="6.333" height="0.25"/>
		<rect x="131.471" y="395.111" style="fill:#EBEBEB;" width="93.676" height="0.25"/>
		<path style="fill:#EBEBEB;" d="M237.014,337.8H43.915c-3.147,0-5.708-2.561-5.708-5.708V60.66c0-3.147,2.561-5.708,5.708-5.708
			h193.099c3.146,0,5.707,2.561,5.707,5.708v271.432C242.721,335.239,240.16,337.8,237.014,337.8z M43.915,55.203
			c-3.01,0-5.458,2.448-5.458,5.458v271.432c0,3.01,2.448,5.458,5.458,5.458h193.099c3.009,0,5.457-2.448,5.457-5.458V60.66
			c0-3.009-2.448-5.458-5.457-5.458H43.915z"/>
		<path style="fill:#EBEBEB;" d="M453.31,337.8H260.212c-3.147,0-5.707-2.561-5.707-5.708V60.66c0-3.147,2.561-5.708,5.707-5.708
			H453.31c3.148,0,5.708,2.561,5.708,5.708v271.432C459.019,335.239,456.458,337.8,453.31,337.8z M260.212,55.203
			c-3.009,0-5.457,2.448-5.457,5.458v271.432c0,3.01,2.448,5.458,5.457,5.458H453.31c3.01,0,5.458-2.448,5.458-5.458V60.66
			c0-3.009-2.448-5.458-5.458-5.458H260.212z"/>
	</g>
	<g>
		<g>
			<rect x="336.345" y="237.05" style="fill:#FAFAFA;" width="22.297" height="9.486"/>
			<rect x="309.364" y="237.05" style="fill:#FAFAFA;" width="22.298" height="9.486"/>
			<rect x="282.382" y="237.05" style="fill:#FAFAFA;" width="22.297" height="9.486"/>
			<rect x="349.836" y="250.257" style="fill:#FAFAFA;" width="22.298" height="9.486"/>
			<rect x="322.854" y="250.257" style="fill:#FAFAFA;" width="22.297" height="9.486"/>
			<rect x="295.873" y="250.257" style="fill:#FAFAFA;" width="22.297" height="9.486"/>
			<rect x="268.891" y="250.257" style="fill:#FAFAFA;" width="22.298" height="9.486"/>
			<rect x="393.329" y="263.463" style="fill:#FAFAFA;" width="22.297" height="9.486"/>
			<rect x="366.347" y="263.463" style="fill:#FAFAFA;" width="22.297" height="9.486"/>
			<rect x="309.364" y="263.463" style="fill:#FAFAFA;" width="22.298" height="9.486"/>
			<rect x="282.382" y="263.463" style="fill:#FAFAFA;" width="22.297" height="9.486"/>
			<rect x="255.401" y="263.463" style="fill:#FAFAFA;" width="22.297" height="9.486"/>
			<rect x="379.838" y="276.67" style="fill:#FAFAFA;" width="22.298" height="9.486"/>
			<rect x="322.854" y="276.67" style="fill:#FAFAFA;" width="22.297" height="9.486"/>
			<rect x="295.873" y="276.67" style="fill:#FAFAFA;" width="22.297" height="9.486"/>
			<rect x="268.891" y="276.67" style="fill:#FAFAFA;" width="22.298" height="9.486"/>
			<rect x="163.646" y="102.498" style="fill:#FAFAFA;" width="22.298" height="9.486"/>
			<rect x="136.665" y="102.498" style="fill:#FAFAFA;" width="22.298" height="9.486"/>
			<rect x="177.137" y="115.704" style="fill:#FAFAFA;" width="22.297" height="9.486"/>
			<rect x="150.156" y="115.704" style="fill:#FAFAFA;" width="22.297" height="9.486"/>
			<rect x="96.193" y="115.704" style="fill:#FAFAFA;" width="22.297" height="9.486"/>
			<rect x="69.212" y="115.704" style="fill:#FAFAFA;" width="22.297" height="9.486"/>
			<rect x="136.665" y="128.911" style="fill:#FAFAFA;" width="22.298" height="9.486"/>
			<rect x="382.279" y="179.799" style="fill:#FAFAFA;" width="22.298" height="9.486"/>
			<rect x="344.528" y="135.964" style="fill:#FAFAFA;" width="22.298" height="9.486"/>
			<rect x="395.77" y="193.005" style="fill:#FAFAFA;" width="22.297" height="9.486"/>
			<rect x="368.788" y="193.005" style="fill:#FAFAFA;" width="22.297" height="9.486"/>
			<rect x="382.279" y="206.212" style="fill:#FAFAFA;" width="22.298" height="9.486"/>
			<rect x="398.622" y="315.171" style="fill:#FAFAFA;" width="22.298" height="9.486"/>
			<rect x="82.702" y="128.911" style="fill:#FAFAFA;" width="22.297" height="9.486"/>
			<rect x="398.622" y="102.854" style="fill:#FAFAFA;" width="22.297" height="9.486"/>
			<rect x="371.641" y="102.854" style="fill:#FAFAFA;" width="22.297" height="9.486"/>
			<rect x="385.131" y="116.06" style="fill:#FAFAFA;" width="22.297" height="9.486"/>
			<rect x="277.754" y="103.063" style="fill:#FAFAFA;" width="22.298" height="9.486"/>
			<rect x="250.772" y="103.063" style="fill:#FAFAFA;" width="22.297" height="9.486"/>
			<rect x="291.244" y="116.27" style="fill:#FAFAFA;" width="22.298" height="9.486"/>
			<rect x="264.263" y="116.27" style="fill:#FAFAFA;" width="22.297" height="9.486"/>
			<rect x="237.281" y="116.27" style="fill:#FAFAFA;" width="22.297" height="9.486"/>
			<rect x="304.735" y="129.476" style="fill:#FAFAFA;" width="22.297" height="9.486"/>
			<rect x="277.754" y="129.476" style="fill:#FAFAFA;" width="22.298" height="9.486"/>
			<rect x="250.772" y="129.476" style="fill:#FAFAFA;" width="22.297" height="9.486"/>
			<rect x="291.244" y="142.683" style="fill:#FAFAFA;" width="22.298" height="9.486"/>
			<rect x="264.263" y="142.683" style="fill:#FAFAFA;" width="22.297" height="9.486"/>
			<rect x="119.896" y="233.463" style="fill:#FAFAFA;" width="22.297" height="9.486"/>
			<rect x="92.915" y="233.463" style="fill:#FAFAFA;" width="22.297" height="9.486"/>
			<rect x="187.35" y="234.669" style="fill:#FAFAFA;" width="22.298" height="9.486"/>
			<rect x="133.387" y="246.669" style="fill:#FAFAFA;" width="22.297" height="9.486"/>
			<rect x="106.405" y="246.669" style="fill:#FAFAFA;" width="22.297" height="9.486"/>
			<rect x="200.841" y="247.875" style="fill:#FAFAFA;" width="22.297" height="9.486"/>
			<rect x="173.859" y="247.875" style="fill:#FAFAFA;" width="22.297" height="9.486"/>
			<rect x="200.841" y="177.106" style="fill:#FAFAFA;" width="22.298" height="9.486"/>
			<rect x="187.35" y="163.9" style="fill:#FAFAFA;" width="22.297" height="9.486"/>
			<rect x="214.331" y="163.9" style="fill:#FAFAFA;" width="22.297" height="9.486"/>
			<rect x="360.238" y="372.268" style="fill:#FAFAFA;" width="22.298" height="9.486"/>
			<rect x="373.729" y="359.062" style="fill:#FAFAFA;" width="22.297" height="9.486"/>
			<rect x="119.896" y="259.876" style="fill:#FAFAFA;" width="22.297" height="9.486"/>
			<rect x="92.915" y="259.876" style="fill:#FAFAFA;" width="22.297" height="9.486"/>
			<rect x="133.387" y="273.082" style="fill:#FAFAFA;" width="22.297" height="9.486"/>
			<rect x="106.405" y="273.082" style="fill:#FAFAFA;" width="22.297" height="9.486"/>
			<rect x="152.232" y="309.616" style="fill:#FAFAFA;" width="22.297" height="9.486"/>
			<rect x="125.25" y="309.616" style="fill:#FAFAFA;" width="22.297" height="9.486"/>
			<rect x="98.269" y="309.616" style="fill:#FAFAFA;" width="22.297" height="9.486"/>
			<rect x="71.287" y="309.616" style="fill:#FAFAFA;" width="22.297" height="9.486"/>
			<rect x="165.722" y="322.823" style="fill:#FAFAFA;" width="22.298" height="9.486"/>
			<rect x="138.741" y="322.823" style="fill:#FAFAFA;" width="22.297" height="9.486"/>
			<rect x="84.778" y="322.823" style="fill:#FAFAFA;" width="22.297" height="9.486"/>
			<rect x="179.213" y="336.029" style="fill:#FAFAFA;" width="22.297" height="9.486"/>
			<rect x="152.232" y="336.029" style="fill:#FAFAFA;" width="22.297" height="9.486"/>
			<rect x="125.25" y="336.029" style="fill:#FAFAFA;" width="22.297" height="9.486"/>
			<rect x="165.722" y="349.236" style="fill:#FAFAFA;" width="22.298" height="9.486"/>
			<rect x="138.741" y="349.236" style="fill:#FAFAFA;" width="22.297" height="9.486"/>
			<rect x="111.76" y="349.236" style="fill:#FAFAFA;" width="22.297" height="9.486"/>
			<rect x="334.769" y="309.007" style="fill:#FAFAFA;" width="22.297" height="9.486"/>
			<rect x="277.785" y="309.007" style="fill:#FAFAFA;" width="22.297" height="9.486"/>
			<rect x="250.804" y="309.007" style="fill:#FAFAFA;" width="22.297" height="9.486"/>
			<rect x="348.259" y="322.213" style="fill:#FAFAFA;" width="22.298" height="9.486"/>
			<rect x="291.276" y="322.213" style="fill:#FAFAFA;" width="22.297" height="9.486"/>
			<rect x="264.294" y="322.213" style="fill:#FAFAFA;" width="22.298" height="9.486"/>
			<rect x="237.313" y="322.213" style="fill:#FAFAFA;" width="22.297" height="9.486"/>
			<rect x="361.75" y="335.42" style="fill:#FAFAFA;" width="22.297" height="9.486"/>
			<rect x="334.769" y="335.42" style="fill:#FAFAFA;" width="22.297" height="9.486"/>
			<rect x="277.785" y="335.42" style="fill:#FAFAFA;" width="22.297" height="9.486"/>
			<rect x="250.804" y="335.42" style="fill:#FAFAFA;" width="22.297" height="9.486"/>
			<rect x="318.257" y="348.626" style="fill:#FAFAFA;" width="22.298" height="9.486"/>
			<rect x="291.276" y="348.626" style="fill:#FAFAFA;" width="22.297" height="9.486"/>
			<rect x="264.294" y="348.626" style="fill:#FAFAFA;" width="22.298" height="9.486"/>
			<rect x="237.313" y="348.626" style="fill:#FAFAFA;" width="22.297" height="9.486"/>
		</g>
		<g>
			<circle style="fill:#E0E0E0;" cx="156.79" cy="120.304" r="16.704"/>
			<circle style="fill:#F0F0F0;" cx="156.79" cy="120.304" r="14.202"/>
			
				<polyline style="fill:#F0F0F0;stroke:#E0E0E0;stroke-width:2;stroke-linecap:round;stroke-linejoin:round;stroke-miterlimit:10;" points="
				157.46,110.561 157.46,120.489 164.039,116.766 			"/>
		</g>
		<g>
			<rect x="109.256" y="181.919" style="fill:#E0E0E0;" width="95.067" height="4.885"/>
			<rect x="113.632" y="163.914" style="fill:#EBEBEB;" width="4.188" height="18.005"/>
			<rect x="133.884" y="163.914" style="fill:#EBEBEB;" width="4.188" height="18.005"/>
			
				<rect x="158.434" y="163.689" transform="matrix(0.9855 -0.1698 0.1698 0.9855 -26.9966 29.7715)" style="fill:#EBEBEB;" width="4.188" height="18.005"/>
			<rect x="118.822" y="166.287" style="fill:#EBEBEB;" width="4.188" height="15.632"/>
			<rect x="128.448" y="166.287" style="fill:#EBEBEB;" width="4.188" height="15.632"/>
			<rect x="152.747" y="166.287" style="fill:#EBEBEB;" width="4.188" height="15.632"/>
			
				<rect x="141.13" y="166.018" transform="matrix(0.9762 -0.2169 0.2169 0.9762 -34.2937 35.2018)" style="fill:#EBEBEB;" width="4.188" height="15.632"/>
			<rect x="124.537" y="163.02" style="fill:#EBEBEB;" width="2.094" height="18.899"/>
			<rect x="149.449" y="163.02" style="fill:#EBEBEB;" width="2.094" height="18.899"/>
			<rect x="174.794" y="167.669" style="fill:#EBEBEB;" width="20.407" height="14.089"/>
		</g>
		<g>
			
				<rect x="109.256" y="218.383" transform="matrix(-1 -1.224647e-16 1.224647e-16 -1 313.5793 441.6507)" style="fill:#E0E0E0;" width="95.067" height="4.885"/>
			
				<rect x="195.759" y="200.378" transform="matrix(-1 -1.224647e-16 1.224647e-16 -1 395.7067 418.7614)" style="fill:#EBEBEB;" width="4.188" height="18.005"/>
			
				<rect x="175.508" y="200.378" transform="matrix(-1 -1.224647e-16 1.224647e-16 -1 355.2034 418.7614)" style="fill:#EBEBEB;" width="4.188" height="18.005"/>
			
				<rect x="150.958" y="200.153" transform="matrix(-0.9855 -0.1698 0.1698 -0.9855 268.3585 441.2663)" style="fill:#EBEBEB;" width="4.188" height="18.005"/>
			
				<rect x="190.57" y="202.751" transform="matrix(-1 -1.224647e-16 1.224647e-16 -1 385.3274 421.1341)" style="fill:#EBEBEB;" width="4.188" height="15.632"/>
			
				<rect x="180.943" y="202.751" transform="matrix(-1 -1.224647e-16 1.224647e-16 -1 366.0742 421.1341)" style="fill:#EBEBEB;" width="4.188" height="15.632"/>
			
				<rect x="156.644" y="202.751" transform="matrix(-1 -1.224647e-16 1.224647e-16 -1 317.4768 421.1341)" style="fill:#EBEBEB;" width="4.188" height="15.632"/>
			
				<rect x="168.261" y="202.483" transform="matrix(-0.9762 -0.2169 0.2169 -0.9762 291.0425 452.5407)" style="fill:#EBEBEB;" width="4.188" height="15.632"/>
			
				<rect x="186.948" y="199.484" transform="matrix(-1 -1.224647e-16 1.224647e-16 -1 375.9901 417.8675)" style="fill:#EBEBEB;" width="2.094" height="18.899"/>
			
				<rect x="162.036" y="199.484" transform="matrix(-1 -1.224647e-16 1.224647e-16 -1 326.167 417.8675)" style="fill:#EBEBEB;" width="2.094" height="18.899"/>
			
				<rect x="118.378" y="204.133" transform="matrix(-1 -1.224647e-16 1.224647e-16 -1 257.1637 422.3543)" style="fill:#EBEBEB;" width="20.407" height="14.089"/>
		</g>
		<g>
			<rect x="251.495" y="122.191" style="fill:#EBEBEB;" width="159.798" height="166.553"/>
			<g>
				<rect x="259.13" y="129.334" style="fill:#FAFAFA;" width="45.4" height="48.646"/>
				<rect x="308.694" y="129.334" style="fill:#FAFAFA;" width="45.4" height="48.646"/>
				<rect x="358.259" y="129.334" style="fill:#FAFAFA;" width="45.4" height="48.646"/>
				<rect x="259.13" y="181.144" style="fill:#FAFAFA;" width="45.4" height="48.646"/>
				<rect x="308.694" y="181.144" style="fill:#FAFAFA;" width="45.4" height="48.646"/>
				<rect x="358.259" y="181.144" style="fill:#FAFAFA;" width="45.4" height="48.646"/>
				<rect x="259.13" y="232.953" style="fill:#FAFAFA;" width="45.4" height="48.646"/>
				<rect x="308.694" y="232.953" style="fill:#FAFAFA;" width="45.4" height="48.646"/>
				<rect x="358.259" y="232.953" style="fill:#FAFAFA;" width="45.4" height="48.646"/>
			</g>
		</g>
	</g>
</g>
<g id="Background_Simple" style="display:none;">
	<g style="display:inline;">
		<path style="fill:#407BFF;" d="M248.807,105.489c-76.976,34.633-7.098,96.358-51.544,129.975
			c-44.446,33.617-165.289-5.246-119.222,82.048c54.112,102.54,291.072,88.301,342.164-37.471S325.783,70.856,248.807,105.489z"/>
		<path style="opacity:0.9;fill:#FFFFFF;" d="M248.807,105.489c-76.976,34.633-7.098,96.358-51.544,129.975
			c-44.446,33.617-165.289-5.246-119.222,82.048c54.112,102.54,291.072,88.301,342.164-37.471S325.783,70.856,248.807,105.489z"/>
	</g>
</g>
<g id="Shadow_1_">
	<ellipse id="_x3C_Path_x3E__359_" style="fill:#F5F5F5;" cx="250" cy="416.238" rx="193.889" ry="11.323"/>
</g>
<g id="Plant">
	<g>
		<g>
			<path style="fill:#263238;" d="M378.993,389.108c-1.246-1.381-4.543-1.714-6.184-0.727c-1.025,0.618-1.365,2.861-1.859,4.08
				c-0.194,0.479-0.424,0.987-0.87,1.249c-0.323,0.189-0.719,0.223-1.04,0.416c-0.645,0.389-0.767,1.256-0.823,2.007
				c-0.069,0.931,0.317,3.471-0.149,4.269c-0.656,1.124-2.936,1.195-4.097,1.487c0.066-0.425-0.503-0.626-0.932-0.661
				c-1.696-0.141-3.392-0.282-5.088-0.423c-0.486-0.04-1.004-0.074-1.431,0.16c-0.427,0.234-0.68,0.848-0.372,1.225
				c1.076,1.315,0.939,0.811-0.159,1.967c-0.861,0.906-2.296,1.733-3.322,2.475c-1.365,0.987-3.057,1.773-4.696,1.384
				c-1.404-0.333-2.895-1.475-4.109-0.695c-0.769,0.494-0.964,1.552-1.635,2.174c-0.401,0.371-0.938,0.555-1.464,0.702
				c-2.277,0.639-4.658,0.795-7.02,0.908c-3.73,0.178-7.483,0.26-11.154,0.945c-2.602,0.486-5.145,1.274-7.577,2.318
				c0.74-0.046,1.478-0.137,2.219-0.137h84.089c-0.33-1.241-1.699-1.965-2.982-2.012c-1.284-0.047-2.854-0.236-3.342-1.424
				c-2.035,0.674-4.325,0.542-6.269-0.361c-0.736-0.342-1.436-0.794-2.231-0.958c-1.459-0.301-3.42,0.212-4.125-1.1
				c-0.289-0.537-0.21-1.2-0.421-1.772c-0.336-0.913-1.322-1.417-1.836-2.243c-0.465-0.746-0.498-1.673-0.518-2.553
				c-0.044-1.946-0.081-3.893-0.117-5.839c-0.031-1.694,0.517-4.747-0.121-6.295C379.272,389.469,379.149,389.28,378.993,389.108z"
				/>
			<path style="opacity:0.5;fill:#FFFFFF;" d="M378.993,389.108c-1.246-1.381-4.543-1.714-6.184-0.727
				c-1.025,0.618-1.365,2.861-1.859,4.08c-0.194,0.479-0.424,0.987-0.87,1.249c-0.323,0.189-0.719,0.223-1.04,0.416
				c-0.645,0.389-0.767,1.256-0.823,2.007c-0.069,0.931,0.317,3.471-0.149,4.269c-0.656,1.124-2.936,1.195-4.097,1.487
				c0.066-0.425-0.503-0.626-0.932-0.661c-1.696-0.141-3.392-0.282-5.088-0.423c-0.486-0.04-1.004-0.074-1.431,0.16
				c-0.427,0.234-0.68,0.848-0.372,1.225c1.076,1.315,0.939,0.811-0.159,1.967c-0.861,0.906-2.296,1.733-3.322,2.475
				c-1.365,0.987-3.057,1.773-4.696,1.384c-1.404-0.333-2.895-1.475-4.109-0.695c-0.769,0.494-0.964,1.552-1.635,2.174
				c-0.401,0.371-0.938,0.555-1.464,0.702c-2.277,0.639-4.658,0.795-7.02,0.908c-3.73,0.178-7.483,0.26-11.154,0.945
				c-2.602,0.486-5.145,1.274-7.577,2.318c0.74-0.046,1.478-0.137,2.219-0.137h84.089c-0.33-1.241-1.699-1.965-2.982-2.012
				c-1.284-0.047-2.854-0.236-3.342-1.424c-2.035,0.674-4.325,0.542-6.269-0.361c-0.736-0.342-1.436-0.794-2.231-0.958
				c-1.459-0.301-3.42,0.212-4.125-1.1c-0.289-0.537-0.21-1.2-0.421-1.772c-0.336-0.913-1.322-1.417-1.836-2.243
				c-0.465-0.746-0.498-1.673-0.518-2.553c-0.044-1.946-0.081-3.893-0.117-5.839c-0.031-1.694,0.517-4.747-0.121-6.295
				C379.272,389.469,379.149,389.28,378.993,389.108z"/>
		</g>
		<g>
			<path style="fill:#407BFF;" d="M390.275,390.653c-0.16,0.07-11.028-0.141-19.145,5.042c-8.419,5.226-11.116,6.271-14.205,3.968
				c-3.041-2.3,7.238-4.081,7.132-4.188c-0.07,0.012-7.849-1.298-15.158,0.334c-7.273,1.887-20.973,1.344-22.598-1.402
				c-1.58-2.339,16.663,1.738,21.898-0.646c-0.023,0.01-6.85-1.759-13.128-2.699c-6.253-0.78-16.57-2.293-19.063-4.834
				c-2.411-2.609-0.548-2.775,13.059,1.213c13.811,3.78,24.575,3.1,24.506,3.143c-0.07,0.332-18.179-4.24-18.668-7.317
				c-0.59-2.731,4.573-2.178,9.467,0.229c4.826,2.525,14.569,6.614,19.217,6.775c-0.116,0.19-13.975-3.493-11.092-7.698
				c2.466-4.009,11.359,2.674,15.689,5.418c4.138,3.238,21.688,1.233,21.531,0.91C389.903,389.484,390.089,390.068,390.275,390.653z
				"/>
			<path style="opacity:0.2;enable-background:new    ;" d="M390.275,390.653c-0.16,0.07-11.028-0.141-19.145,5.042
				c-8.419,5.226-11.116,6.271-14.205,3.968c-3.041-2.3,7.238-4.081,7.132-4.188c-0.07,0.012-7.849-1.298-15.158,0.334
				c-7.273,1.887-20.973,1.344-22.598-1.402c-1.58-2.339,16.663,1.738,21.898-0.646c-0.023,0.01-6.85-1.759-13.128-2.699
				c-6.253-0.78-16.57-2.293-19.063-4.834c-2.411-2.609-0.548-2.775,13.059,1.213c13.811,3.78,24.575,3.1,24.506,3.143
				c-0.07,0.332-18.179-4.24-18.668-7.317c-0.59-2.731,4.573-2.178,9.467,0.229c4.826,2.525,14.569,6.614,19.217,6.775
				c-0.116,0.19-13.975-3.493-11.092-7.698c2.466-4.009,11.359,2.674,15.689,5.418c4.138,3.238,21.688,1.233,21.531,0.91
				C389.903,389.484,390.089,390.068,390.275,390.653z"/>
		</g>
		<path style="fill:#407BFF;" d="M388.798,387.838c0.249-0.04-9.929,7.616-21.833,5.781c-11.476-1.949-13.5-3.236-15.615-0.234
			c-2.167,2.999,8.766,2.822,8.832,2.699c0.093-0.005-7.534,3.567-15.411,2.177c-7.862-1.188-19.499-2.962-21.509-0.638
			c-2.065,2.659,15.339,1.387,21.229,2.866c0.035,0.007-6.911,2.322-13.499,2.454c-6.613,0.274-16.454-1.319-19.817,0.18
			c-3.445,1.392-2.233,3.544,12.993,2.741c15.074-1.05,26.961-2.615,27.004-2.575c0.189,0.337-19.847,5.644-21.403,8.209
			c-1.368,2.94,5.569,3.105,11.77,0.254c6.311-2.735,16.275-8.76,21.074-10.5c0.238,0.163-14.62,6.881-10.234,10.607
			c4.982,3.874,14.569-5.869,16.892-10.134c2.934-3.861,21.17-12.134,21.005-12.455C389.78,388.793,389.288,388.317,388.798,387.838
			z"/>
		<g>
			<polygon style="fill:#263238;" points="373.097,410.477 400.577,413.097 407.197,381.647 380.996,372.957 380.077,377.307 
				384.496,379.677 383.707,381.327 391.617,382.637 382.317,382.637 381.627,381.087 379.287,381.087 			"/>
		</g>
		<polygon style="fill:#263238;" points="409.771,413.097 418.745,413.097 414.258,410.22 411.478,411.658 		"/>
		<polygon style="fill:#263238;" points="424.617,413.097 429.468,413.097 425.894,411.895 		"/>
	</g>
</g>
<g id="Sperm">
	<g>
		<g>
			<circle style="fill:#407BFF;" cx="318.692" cy="258.018" r="83.052"/>
			<circle style="opacity:0.7;fill:#FFFFFF;" cx="318.692" cy="258.018" r="83.052"/>
			<g>
				<g>
					<g style="opacity:0.4;">
						<path style="fill:#FFFFFF;" d="M275.69,216.591c3.972-0.368,7.753-0.182,11.569,0.331c3.795,0.512,7.528,1.445,11.092,2.803
							c3.477,1.396,6.995,2.521,10.68,3.077c1.835,0.277,3.697,0.396,5.553,0.294c0.924-0.073,1.855-0.168,2.75-0.416
							c0.872-0.249,1.834-0.55,2.371-1.342c-0.484,0.831-1.448,1.211-2.316,1.521c-0.896,0.313-1.833,0.473-2.769,0.61
							c-1.879,0.23-3.785,0.235-5.674,0.078c-3.774-0.309-7.518-1.24-11.084-2.404c-3.527-1.081-7.172-1.736-10.837-1.983
							c-3.637-0.256-7.407-0.163-10.878,0.396L275.69,216.591z"/>
					</g>
					<g style="opacity:0.4;">
						<path style="fill:#FFFFFF;" d="M351.082,216.578c3.927,0.704,7.521,1.893,11.062,3.405c3.521,1.506,6.87,3.4,9.943,5.66
							c2.979,2.272,6.069,4.295,9.473,5.814c1.694,0.757,3.457,1.368,5.273,1.765c0.91,0.176,1.832,0.333,2.762,0.332
							c0.908-0.008,1.914-0.041,2.642-0.661c-0.688,0.672-1.718,0.781-2.638,0.848c-0.947,0.063-1.893-0.033-2.832-0.151
							c-1.872-0.28-3.711-0.783-5.489-1.438c-3.555-1.304-6.915-3.2-10.042-5.273c-3.111-1.982-6.449-3.586-9.915-4.802
							c-3.437-1.217-7.095-2.133-10.59-2.52L351.082,216.578z"/>
					</g>
					<g style="opacity:0.4;">
						<path style="fill:#FFFFFF;" d="M285.435,311.198c3.972-0.368,7.753-0.182,11.569,0.331c3.795,0.512,7.528,1.445,11.092,2.803
							c3.477,1.396,6.994,2.521,10.68,3.077c1.834,0.277,3.697,0.396,5.553,0.294c0.924-0.073,1.855-0.168,2.75-0.416
							c0.873-0.249,1.834-0.55,2.37-1.342c-0.484,0.831-1.448,1.211-2.316,1.521c-0.896,0.314-1.833,0.473-2.769,0.61
							c-1.879,0.23-3.785,0.235-5.674,0.077c-3.774-0.309-7.518-1.24-11.085-2.404c-3.527-1.081-7.172-1.736-10.837-1.983
							c-3.637-0.256-7.407-0.163-10.878,0.396L285.435,311.198z"/>
					</g>
					<g style="opacity:0.4;">
						<path style="fill:#FFFFFF;" d="M304.854,235.317c0.534,0.228,1.37,0.477,2.106,0.63c0.762,0.163,1.543,0.289,2.332,0.349
							c1.578,0.135,3.183,0.073,4.765-0.189c1.579-0.27,3.153-0.699,4.641-1.371c1.579-0.674,3.292-1.398,4.989-1.855
							c1.701-0.506,3.427-0.889,5.166-1.159c1.734-0.293,3.486-0.448,5.236-0.516c1.749-0.073,3.507-0.003,5.238,0.238
							c1.713,0.259,3.486,0.66,4.897,1.689c-1.5-0.884-3.251-1.098-4.944-1.191c-1.707-0.07-3.419,0.026-5.11,0.261
							c-1.69,0.23-3.368,0.544-5.01,0.987c-1.646,0.421-3.26,0.948-4.82,1.581c-1.596,0.606-3.007,1.375-4.535,2.207
							c-1.587,0.908-3.321,1.575-5.107,2.06c-1.79,0.479-3.65,0.735-5.525,0.757c-0.938,0.018-1.879-0.039-2.821-0.147
							c-0.969-0.12-1.824-0.256-2.923-0.593L304.854,235.317z"/>
					</g>
					<g style="opacity:0.4;">
						<path style="fill:#FFFFFF;" d="M260.841,254.032c0.502,0.293,1.3,0.644,2.01,0.888c0.737,0.257,1.496,0.479,2.271,0.637
							c1.548,0.33,3.149,0.469,4.751,0.406c1.6-0.071,3.216-0.301,4.776-0.782c1.65-0.471,3.441-0.977,5.181-1.219
							c1.751-0.29,3.512-0.454,5.27-0.506c1.757-0.074,3.515-0.01,5.259,0.141c1.744,0.145,3.479,0.434,5.168,0.889
							c1.667,0.471,3.377,1.089,4.648,2.286c-1.379-1.064-3.089-1.495-4.757-1.798c-1.685-0.283-3.395-0.401-5.103-0.378
							c-1.706,0.018-3.41,0.119-5.094,0.355c-1.685,0.213-3.353,0.535-4.979,0.968c-1.659,0.402-3.155,0.99-4.775,1.624
							c-1.688,0.703-3.491,1.148-5.324,1.408c-1.836,0.252-3.713,0.274-5.576,0.062c-0.933-0.1-1.859-0.273-2.78-0.497
							c-0.947-0.24-1.778-0.482-2.826-0.953L260.841,254.032z"/>
					</g>
					<g style="opacity:0.4;">
						<path style="fill:#FFFFFF;" d="M323.937,270.256c2.709,0.074,5.473-0.12,8.25-0.457c2.779-0.377,5.571-0.859,8.374-1.391
							c5.61-1.04,11.286-2.256,17.13-2.537c2.913-0.1,5.873-0.074,8.76,0.579c0.728,0.099,1.426,0.381,2.137,0.563
							c0.723,0.194,1.395,0.428,2.056,0.651c1.338,0.44,2.699,0.796,4.08,1.043c2.757,0.499,5.623,0.459,8.369-0.202
							c0.682-0.171,1.352-0.391,1.993-0.678c0.642-0.283,1.24-0.665,1.86-1.031c0.617-0.363,1.268-0.713,1.979-0.875
							c0.7-0.165,1.473-0.156,2.112,0.185c-0.658-0.302-1.41-0.263-2.081-0.064c-0.68,0.198-1.288,0.571-1.878,0.966
							c-0.589,0.396-1.177,0.822-1.829,1.157c-0.647,0.337-1.327,0.605-2.021,0.823c-2.778,0.845-5.75,1.062-8.649,0.71
							c-2.914-0.29-5.711-1.348-8.396-1.771c-2.743-0.458-5.563-0.318-8.343-0.06c-5.584,0.593-11.074,2.1-16.638,3.473
							c-2.784,0.698-5.602,1.358-8.467,1.917c-2.88,0.521-5.818,0.909-8.835,1L323.937,270.256z"/>
					</g>
					<g style="opacity:0.4;">
						<path style="fill:#FFFFFF;" d="M261.521,278.581c3.105-0.364,6.151-0.254,9.137-0.025c2.987,0.237,5.926,0.609,8.858,0.902
							c2.93,0.291,5.86,0.518,8.789,0.414c2.919-0.107,5.866-0.559,8.583-1.761c-2.601,1.434-5.562,2.163-8.521,2.529
							c-2.97,0.365-5.967,0.393-8.938,0.357c-2.972-0.038-5.93-0.153-8.853-0.13c-2.919,0.027-5.818,0.188-8.561,0.757
							L261.521,278.581z"/>
					</g>
					<g style="opacity:0.4;">
						<path style="fill:#FFFFFF;" d="M344.882,312.567c2.923-1.11,5.904-1.746,8.855-2.252c2.955-0.499,5.895-0.854,8.811-1.285
							c2.913-0.432,5.81-0.926,8.625-1.741c2.804-0.816,5.552-1.972,7.895-3.8c-2.173,2.025-4.867,3.454-7.647,4.53
							c-2.791,1.078-5.691,1.836-8.582,2.525c-2.892,0.688-5.788,1.297-8.618,2.032c-2.824,0.738-5.597,1.601-8.118,2.822
							L344.882,312.567z"/>
					</g>
					<g style="opacity:0.4;">
						<path style="fill:#FFFFFF;" d="M296.376,288.141c5.983,0.405,11.904,1.558,17.568,3.297
							c5.678,1.703,11.066,4.036,16.575,5.613c2.756,0.778,5.563,1.326,8.405,1.435c2.835,0.104,5.738-0.158,8.514-0.841
							c2.788-0.679,5.446-1.838,7.986-3.261c1.281-0.691,2.554-1.426,3.912-1.994c1.352-0.573,2.822-0.909,4.285-0.838
							c-1.466,0.013-2.887,0.428-4.183,1.066c-1.302,0.634-2.519,1.433-3.763,2.199c-2.462,1.57-5.127,2.926-7.971,3.793
							c-2.848,0.872-5.797,1.313-8.792,1.377c-2.995,0.058-5.983-0.353-8.88-0.995c-2.903-0.639-5.725-1.496-8.518-2.329
							c-2.796-0.828-5.572-1.657-8.365-2.331c-5.581-1.368-11.245-2.131-16.924-2.193L296.376,288.141z"/>
					</g>
					<g style="opacity:0.4;">
						<path style="fill:#FFFFFF;" d="M343.649,244.051c4.281,0.29,8.518,1.115,12.571,2.359c4.063,1.219,7.918,2.888,11.86,4.016
							c1.972,0.557,3.98,0.949,6.014,1.027c2.029,0.074,4.105-0.113,6.092-0.602c1.995-0.486,3.897-1.315,5.714-2.333
							c0.917-0.494,1.828-1.021,2.799-1.427c0.967-0.41,2.019-0.651,3.066-0.6c-2.144,0.001-3.93,1.254-5.686,2.336
							c-1.762,1.124-3.668,2.093-5.704,2.714c-2.038,0.624-4.148,0.939-6.291,0.985c-2.143,0.042-4.281-0.252-6.354-0.712
							c-4.153-0.94-8.077-2.383-12.08-3.334c-3.993-0.979-8.046-1.525-12.11-1.569L343.649,244.051z"/>
					</g>
					<g style="opacity:0.4;">
						<path style="fill:#FFFFFF;" d="M298.317,192.173c5.615,0.854,11.328,1.014,17.056,0.563c2.865-0.215,5.738-0.586,8.631-0.953
							c2.89-0.372,5.814-0.763,8.782-0.926c2.963-0.167,5.978-0.091,8.924,0.449c2.945,0.545,5.785,1.456,8.455,2.775
							c2.668,1.314,5.079,3.081,7.256,5.027c1.105,0.956,2.177,1.941,3.36,2.776c1.176,0.838,2.511,1.477,3.956,1.726
							c-1.455-0.165-2.852-0.734-4.094-1.517c-1.249-0.78-2.387-1.711-3.54-2.599c-2.278-1.813-4.714-3.385-7.356-4.505
							c-2.63-1.121-5.452-1.847-8.267-2.201c-2.823-0.351-5.681-0.262-8.526,0.062c-5.691,0.668-11.385,2.103-17.262,2.869
							c-5.87,0.804-11.899,0.988-17.87,0.423L298.317,192.173z"/>
					</g>
				</g>
				<g>
					<path style="fill:#407BFF;" d="M301.067,190.655c0,0,8.043,2.599,13.404,1.833c0,0,1.277,2.17,0,3.702
						c0,0-9.699,2.771-14.296,1.449C295.578,196.318,298.386,190.864,301.067,190.655z"/>
					<path style="fill:#407BFF;" d="M280.038,214.492c0,0,6.32,0.919,8.65,2.506c0,0,0.77,1.532,0,2.681
						c0,0-7.28-0.255-10.089,1.787C275.791,223.509,274.201,215.178,280.038,214.492z"/>
					<path style="fill:#407BFF;" d="M305.06,233.66c0,0,2.866,2.62,7.369,2.906c0,0,0.894,2.413,0,3.678
						c0,0-6.128,3.405-11.234,1.76C296.088,240.36,299.862,233.342,305.06,233.66z"/>
					<path style="fill:#407BFF;" d="M362.28,222.632c0,0-5.809-1.544-10.66-0.844c-4.851,0.7-2.497-6.637,1.021-6.194
						c3.518,0.443,6.982,1.871,9.639,4.34C362.28,219.934,363.876,221.244,362.28,222.632z"/>
					<path style="fill:#407BFF;" d="M346.873,242.709c0,0,6.219,1.222,9.057,3.396c0,0-0.608,2.467-1.118,2.638
						c-0.511,0.17,0.511-0.171,0.511-0.171s-5.489-1.701-9.83-0.297C341.152,249.679,343.146,242.504,346.873,242.709z"/>
					<path style="fill:#407BFF;" d="M328.285,267.277c0,0,9.421,2.062,13.889,0.657c0,0,1.694,0.894,1.422,3.191
						c0,0-10.486,5.617-17.379,5.106C319.323,275.722,322.622,266.378,328.285,267.277z"/>
					<path style="fill:#407BFF;" d="M349.042,309.464c4.272-1.887,8.435,0,8.435,0s1.037,1.109,0.909,2.513
						c0,0-6.305,1.251-9.344,3.37C346.003,317.466,344.039,311.675,349.042,309.464z"/>
					<path style="fill:#407BFF;" d="M289.329,309.215c5.259-0.382,9.36,1.767,9.36,1.767s0.77,2.208,0,3.101
						c0,0-6.089-0.892-10.089,1.086C284.6,317.147,282.526,309.709,289.329,309.215z"/>
					<path style="fill:#407BFF;" d="M312.826,290.913c0,0-7.923-4.085-14.054-3.574c-6.131,0.511-0.815,6.743,0.74,7.201
						c1.555,0.458,5.002-2.606,12.279-0.691C311.791,293.849,313.095,292.19,312.826,290.913z"/>
					<path style="fill:#407BFF;" d="M273.62,278.658c0,0-6.511-2.17-10.213-1.532c-3.702,0.638-1.532,4.596,0,5.234
						c1.532,0.638,6.255-1.404,10.213-1.277C273.62,281.083,274.46,278.918,273.62,278.658z"/>
					<path style="fill:#407BFF;" d="M267.68,255.428c-2.357,0.124-6.315-3.907-8.868-3.423c-2.553,0.483-3.319,5.845-1.149,7.632
						c2.17,1.787,10.017,0,10.017,0s1.345-1.102,1.217-2.083C268.769,256.573,267.68,255.428,267.68,255.428z"/>
					<g style="opacity:0.9;">
						<path style="fill:#FFFFFF;" d="M301.067,190.655c0,0,8.043,2.599,13.404,1.833c0,0,1.277,2.17,0,3.702
							c0,0-9.699,2.771-14.296,1.449C295.578,196.318,298.386,190.864,301.067,190.655z"/>
						<path style="fill:#FFFFFF;" d="M280.038,214.492c0,0,6.32,0.919,8.65,2.506c0,0,0.77,1.532,0,2.681
							c0,0-7.28-0.255-10.089,1.787C275.791,223.509,274.201,215.178,280.038,214.492z"/>
						<path style="fill:#FFFFFF;" d="M305.06,233.66c0,0,2.866,2.62,7.369,2.906c0,0,0.894,2.413,0,3.678
							c0,0-6.128,3.405-11.234,1.76C296.088,240.36,299.862,233.342,305.06,233.66z"/>
						<path style="fill:#FFFFFF;" d="M362.28,222.632c0,0-5.809-1.544-10.66-0.844c-4.851,0.7-2.497-6.637,1.021-6.194
							c3.518,0.443,6.982,1.871,9.639,4.34C362.28,219.934,363.876,221.244,362.28,222.632z"/>
						<path style="fill:#FFFFFF;" d="M346.873,242.709c0,0,6.219,1.222,9.057,3.396c0,0-0.608,2.467-1.118,2.638
							c-0.511,0.17,0.511-0.171,0.511-0.171s-5.489-1.701-9.83-0.297C341.152,249.679,343.146,242.504,346.873,242.709z"/>
						<path style="fill:#FFFFFF;" d="M328.285,267.277c0,0,9.421,2.062,13.889,0.657c0,0,1.694,0.894,1.422,3.191
							c0,0-10.486,5.617-17.379,5.106C319.323,275.722,322.622,266.378,328.285,267.277z"/>
						<path style="fill:#FFFFFF;" d="M349.042,309.464c4.272-1.887,8.435,0,8.435,0s1.037,1.109,0.909,2.513
							c0,0-6.305,1.251-9.344,3.37C346.003,317.466,344.039,311.675,349.042,309.464z"/>
						<path style="fill:#FFFFFF;" d="M289.329,309.215c5.259-0.382,9.36,1.767,9.36,1.767s0.77,2.208,0,3.101
							c0,0-6.089-0.892-10.089,1.086C284.6,317.147,282.526,309.709,289.329,309.215z"/>
						<path style="fill:#FFFFFF;" d="M312.826,290.913c0,0-7.923-4.085-14.054-3.574c-6.131,0.511-0.815,6.743,0.74,7.201
							c1.555,0.458,5.002-2.606,12.279-0.691C311.791,293.849,313.095,292.19,312.826,290.913z"/>
						<path style="fill:#FFFFFF;" d="M273.62,278.658c0,0-6.511-2.17-10.213-1.532c-3.702,0.638-1.532,4.596,0,5.234
							c1.532,0.638,6.255-1.404,10.213-1.277C273.62,281.083,274.46,278.918,273.62,278.658z"/>
						<path style="fill:#FFFFFF;" d="M267.68,255.428c-2.357,0.124-6.315-3.907-8.868-3.423c-2.553,0.483-3.319,5.845-1.149,7.632
							c2.17,1.787,10.017,0,10.017,0s1.345-1.102,1.217-2.083C268.769,256.573,267.68,255.428,267.68,255.428z"/>
					</g>
				</g>
				<g>
					<path style="fill:#FFFFFF;" d="M282.684,218.074c0,2.498-3.029,4.522-6.766,4.522c-3.737,0-6.766-2.025-6.766-4.522
						c0-2.497,3.029-4.522,6.766-4.522C279.655,213.551,282.684,215.576,282.684,218.074z"/>
					<path style="fill:#FFFFFF;" d="M303.913,290.14c0,2.683-3.408,4.858-7.613,4.858c-4.204,0-7.613-2.175-7.613-4.858
						c0-2.683,3.408-4.859,7.613-4.859C300.505,285.281,303.913,287.456,303.913,290.14z"/>
					<ellipse style="fill:#FFFFFF;" cx="323.918" cy="272.255" rx="8.298" ry="5.863"/>
					<path style="fill:#FFFFFF;" d="M307.188,238.508c-0.516,2.953-4.03,4.806-7.85,4.139c-3.82-0.667-6.499-3.602-5.983-6.555
						c0.516-2.953,4.03-4.806,7.85-4.139C305.026,232.621,307.704,235.555,307.188,238.508z"/>
					<path style="fill:#FFFFFF;" d="M357.428,219.872c-0.666,2.407-4.126,3.55-7.727,2.554c-3.601-0.997-5.981-3.756-5.315-6.163
						c0.666-2.407,4.126-3.55,7.727-2.554C355.714,214.706,358.094,217.465,357.428,219.872z"/>
					<ellipse style="fill:#FFFFFF;" cx="285.664" cy="312.68" rx="6.766" ry="4.522"/>
					<path style="fill:#FFFFFF;" d="M262.759,257.488c-0.88,2.866-4.598,4.266-8.305,3.128c-3.707-1.138-5.999-4.384-5.119-7.249
						c0.88-2.866,4.598-4.266,8.305-3.128C261.347,251.377,263.639,254.623,262.759,257.488z"/>
					<path style="fill:#FFFFFF;" d="M268.088,279.137c-0.377-2.466-3.512-4.033-7.003-3.5c-3.491,0.533-6.015,2.965-5.638,5.431
						c0.377,2.466,3.512,4.033,7.003,3.5C265.941,284.034,268.465,281.603,268.088,279.137z"/>
					<path style="fill:#FFFFFF;" d="M351.387,311.504c-0.967-2.3-4.389-3.055-7.645-1.687c-3.255,1.368-5.11,4.342-4.144,6.642
						c0.967,2.3,4.389,3.055,7.645,1.687C350.499,316.778,352.354,313.804,351.387,311.504z"/>
					<ellipse style="fill:#FFFFFF;" cx="343.595" cy="245.481" rx="5.447" ry="3.477"/>
					<path style="fill:#FFFFFF;" d="M305.582,195.384c0.432-2.648-2.581-5.344-6.73-6.022c-4.149-0.678-7.864,0.92-8.296,3.568
						c-0.432,2.648,2.581,5.344,6.73,6.022C301.436,199.63,305.15,198.033,305.582,195.384z"/>
				</g>
			</g>
		</g>
		<g>
			<circle style="fill:none;stroke:#407BFF;stroke-width:10;stroke-miterlimit:10;" cx="318.692" cy="258.018" r="92.786"/>
			
				<line style="fill:none;stroke:#407BFF;stroke-width:10;stroke-miterlimit:10;" x1="384.302" y1="192.408" x2="253.082" y2="323.628"/>
		</g>
	</g>
</g>
<g id="Speech_bubble">
	<g>
		<g>
			<path style="fill:#407BFF;" d="M147.284,193.908h31.599c6.001,0,10.865,4.864,10.865,10.865v30.709
				c0,6.001-4.865,10.865-10.865,10.865h-17.59l-5.347,11.471l-1.961-11.471h-6.701c-6,0-10.865-4.865-10.865-10.865v-30.709
				C136.419,198.773,141.283,193.908,147.284,193.908z"/>
		</g>
		<path style="opacity:0.7;fill:#FFFFFF;" d="M148.891,210.986c3.17-5.003,8.657-4.042,12.419-0.789l-0.721,1.871l-0.329,0.855
			l0.699,0.419l3.188,1.91l-2.993,3.356l-0.354,0.398l0.344,0.335l3.228,3.146l-1.719,5.629l2.34-5.615l0.064-0.155l-0.127-0.151
			l-2.668-3.169l3.697-3.402l0.683-0.628l-0.809-0.6l-2.994-2.221l0.129-0.256c0.056,0.071,0.119,0.137,0.174,0.209
			c3.673-4.571,10.693-6.764,14.276-0.774c6.041,10.099-6.795,19.218-12.847,22.776c-0.686,0.409-1.253,0.745-1.726,1.009
			c-0.466-0.276-1.025-0.627-1.699-1.054C155.187,230.373,142.591,220.926,148.891,210.986z"/>
	</g>
</g>
<g id="Character">
	<g>
		<g>
			<g>
				<path style="fill:#E9BFBB;" d="M160.051,314.023c2.529,1.59,5.146,3.306,7.755,4.878c2.599,1.614,5.209,3.192,7.804,4.666
					c1.302,0.722,2.591,1.443,3.865,2.085c1.264,0.642,2.54,1.217,3.627,1.627c0.53,0.206,1.028,0.345,1.228,0.402
					c0.089,0.033,0.079,0.017-0.234,0.074c-0.055,0.017-0.186,0.038-0.314,0.076c-0.096,0.035-0.306,0.093-0.476,0.175
					c-0.146,0.073-0.443,0.207-0.63,0.353c-0.208,0.141-0.406,0.301-0.61,0.505c-0.406,0.4-0.743,0.944-0.915,1.407
					c-0.179,0.468-0.224,0.838-0.236,1.084c-0.01,0.499,0.062,0.574,0.058,0.546c0.012-0.087-0.149-0.577-0.371-1.07
					c-0.46-1.03-1.178-2.246-1.953-3.437c-0.78-1.202-1.649-2.407-2.528-3.625c-1.771-2.433-3.697-4.83-5.633-7.239
					c-3.91-4.781-7.97-9.58-12.021-14.306l4.178-4.388c5.018,4.009,9.795,8.186,14.408,12.674c2.316,2.233,4.558,4.557,6.761,7.009
					c1.105,1.225,2.171,2.506,3.226,3.862c1.052,1.37,2.086,2.78,3.079,4.544c0.494,0.906,0.987,1.861,1.393,3.299
					c0.189,0.733,0.388,1.595,0.326,2.881c-0.038,0.638-0.157,1.398-0.481,2.233c-0.316,0.83-0.873,1.71-1.56,2.385
					c-0.344,0.342-0.697,0.625-1.069,0.873c-0.363,0.234-0.818,0.49-1.154,0.622c-0.354,0.15-0.745,0.288-1.036,0.358
					c-0.32,0.086-0.641,0.154-0.893,0.188c-1.094,0.161-1.897,0.119-2.589,0.062c-1.363-0.135-2.396-0.388-3.367-0.652
					c-1.915-0.542-3.542-1.199-5.138-1.872c-1.584-0.679-3.102-1.385-4.58-2.138c-5.928-2.985-11.345-6.305-16.753-9.996
					L160.051,314.023z"/>
			</g>
		</g>
		<path style="fill:#407BFF;" d="M172.19,321.067l-7.934,12.233l-7.8-2.587l-6.662-2.199c0,0-0.077-2.29,0-5.045
			c0.091-2.936,0.362-6.403,1.113-8.188c1.449-3.454,5.73-3.48,5.73-3.48C166.636,315.216,172.19,321.067,172.19,321.067z"/>
		<path style="opacity:0.7;fill:#FFFFFF;" d="M172.19,321.067l-7.934,12.233l-7.8-2.587l-6.662-2.199c0,0-0.077-2.29,0-5.045
			c0.091-2.936,0.362-6.403,1.113-8.188c1.449-3.454,5.73-3.48,5.73-3.48C166.636,315.216,172.19,321.067,172.19,321.067z"/>
		<path style="opacity:0.1;" d="M156.456,330.713l-6.662-2.199c0,0-0.077-2.29,0-5.045
			C151.527,324.362,154.735,326.496,156.456,330.713z"/>
		<path style="fill:#407BFF;" d="M153.183,384.602c-6.571-0.078-31.303-0.362-44.795-0.517c-4.967-26.466-3.945-46.011-2.096-58.066
			c0.802-5.213,1.759-9.029,2.445-11.409c0.569-1.927,0.97-2.91,0.97-2.91s6.273-1.656,12.909-2.173
			c5.032-0.401,13.323-0.129,19.04,0.207c7.322,0.44,14.979,2.07,14.979,2.07C149.626,344.127,153.571,377.72,153.183,384.602z"/>
		<path style="opacity:0.7;fill:#FFFFFF;" d="M153.183,384.602c-6.571-0.078-31.303-0.362-44.795-0.517
			c-4.967-26.466-3.945-46.011-2.096-58.066c0.802-5.213,1.759-9.029,2.445-11.409c0.569-1.927,0.97-2.91,0.97-2.91
			s6.273-1.656,12.909-2.173c5.032-0.401,13.323-0.129,19.04,0.207c7.322,0.44,14.979,2.07,14.979,2.07
			C149.626,344.127,153.571,377.72,153.183,384.602z"/>
		<path style="fill:#407BFF;" d="M254.742,409.998l-10.873,0.172c-0.366,0.008-0.679,0.268-0.753,0.627l-1.639,7.997
			c-0.14,0.716,0.327,1.41,1.044,1.549c0.096,0.019,0.193,0.027,0.291,0.024c3.517-0.112,6.075-0.369,10.493-0.439
			c2.721-0.043,10.934,0.112,14.691,0.052c3.757-0.059,4.188-3.778,2.645-4.096c-6.923-1.394-12.147-3.395-14.388-5.341
			C255.839,410.174,255.298,409.979,254.742,409.998z"/>
		<path style="fill:#263238;" d="M257.374,410.127l-15.921,4.748l-47.99-49.87c0,0-0.75,1.151-2.031,3.104
			c-3.738,5.627-12.043,17.902-20.076,28.225c-6.403,8.201-12.638,15.16-16.286,16.531c-10.633,3.984-30.786,0-30.786,0
			l8.292-26.401c0,0,7.334-8.11,17.088-17.928c7.386-7.438,16.143-15.846,24.137-22.443c7.735-6.377,14.746-11.06,19.08-11.525
			C204.86,333.3,257.374,410.127,257.374,410.127z"/>
		<path style="opacity:0.2;" d="M191.433,368.109c-3.738,5.627-12.043,17.902-20.076,28.225l-5.42-6.39
			c-14.992,19.312-29.648,21.951-29.648,21.951s5.899-23.465,13.375-43.359c7.386-7.438,16.143-15.846,24.137-22.443
			C179.481,351.798,185.961,360.348,191.433,368.109z"/>
		<path style="fill:#407BFF;" d="M203.169,409.998l-10.873,0.172c-0.367,0.008-0.679,0.268-0.753,0.627l-1.639,7.997
			c-0.14,0.716,0.328,1.41,1.044,1.549c0.096,0.019,0.193,0.027,0.291,0.024c3.517-0.112,6.075-0.369,10.493-0.439
			c2.721-0.043,10.934,0.112,14.691,0.052c3.757-0.059,4.188-3.778,2.645-4.096c-6.923-1.394-12.147-3.395-14.388-5.341
			C204.265,410.174,203.724,409.979,203.169,409.998z"/>
		<g>
			<path style="fill:#EEC1BB;" d="M145.758,315.566c0,0-1.863,6.416-10.503,5.924c-6.442-0.375-13.531-10.516-13.531-10.516
				c1.449-0.362,2.717-0.918,3.816-1.604c2.044-1.268,3.545-2.962,4.644-4.67c0.492-0.737,0.892-1.475,1.216-2.173
				c1.307-2.716,1.656-5.006,1.656-5.006s0.026,0.013,0.065,0.039c0.828,0.401,10.18,5.135,8.046,10.672
				c-0.194,0.517-0.323,0.996-0.388,1.449c-0.142,0.893-0.026,1.669,0.233,2.315c0.143,0.362,0.323,0.686,0.544,0.983
				c0.143,0.194,0.298,0.375,0.466,0.543c0,0,0.013,0,0.013,0.013c0.737,0.763,1.669,1.255,2.406,1.565
				C145.189,315.436,145.758,315.566,145.758,315.566z"/>
			<path style="opacity:0.2;" d="M141.554,312.979c-5.666,3.337-10.581-6.636-8.434-15.419c0.828,0.401,10.18,5.135,8.046,10.672
				c-0.194,0.517-0.323,0.996-0.388,1.449c-0.142,0.893-0.026,1.669,0.233,2.315C141.153,312.358,141.334,312.681,141.554,312.979z"
				/>
		</g>
		<g>
			<path style="fill:#EEC1BB;" d="M165.93,301.65l-5.15,2.22c-2.98-1.15-4.6-3.57-5.47-5.83c-1.03-2.66-1.03-5.11-1.03-5.11
				l2.72-0.85l7.25-2.26L165.93,301.65z"/>
			<polygon style="fill:#EEC1BB;" points="164.25,289.82 157,292.08 154.28,292.93 152.36,287.04 157.25,284.13 159.24,282.95 			
				"/>
			<path style="opacity:0.1;" d="M155.31,298.04c-1.03-2.66-1.03-5.11-1.03-5.11l-1.92-5.89l3.108-2.91
				C156.915,291.638,155.31,298.04,155.31,298.04z"/>
		</g>
		<g>
			<g>
				
					<path style="fill:none;stroke:#263238;stroke-width:0.3234;stroke-linecap:round;stroke-linejoin:round;stroke-miterlimit:10;" d="
					M142.087,291.839c0,0,1.788,0.214,2.713,1.579c0,0-1.744-0.725-2.574,0.015"/>
				
					<path style="fill:none;stroke:#263238;stroke-width:0.3234;stroke-linecap:round;stroke-linejoin:round;stroke-miterlimit:10;" d="
					M153.863,293.164c0,0-1.718-0.308-2.963,0.695c0,0,1.822-0.178,2.382,0.743"/>
				<g>
					<path style="fill:#FFFFFF;" d="M140.899,303.758c1.831,0.297,3.54,0.359,5.348,1.335c0.142,0.064,0.263,0.149,0.4,0.225
						c0,0,0.683-1.487,1.962-2.376c0,0-0.092-0.088-0.264-0.259c-1.127-1.076-5.58-5.14-7.626-4.031
						C138.355,299.923,138.938,303.442,140.899,303.758z"/>
					<path style="opacity:0.2;" d="M140.66,300.431c0,0,0.397,0.197,0.995,0.521l-0.128,0.627l0.464-0.452
						c0.404,0.213,0.849,0.468,1.318,0.732l-0.191,0.728l0.523-0.541c0.509,0.306,1.026,0.628,1.506,0.937l-0.244,0.682l0.498-0.509
						c0.456,0.3,0.867,0.612,1.168,0.884l-0.321,1.053c0.142,0.064,0.263,0.149,0.4,0.225c0,0,0.683-1.487,1.962-2.376
						c0,0-0.092-0.088-0.264-0.259l-1.464,0.905c0,0-0.438-0.349-1.214-0.832l0.327-0.914l-0.634,0.735
						c-0.452-0.272-0.978-0.569-1.569-0.877l0.161-1.028l-0.514,0.86c-0.433-0.21-0.895-0.416-1.386-0.619l0.097-0.886l-0.413,0.773
						C141.387,300.663,141.034,300.537,140.66,300.431z"/>
				</g>
			</g>
			<path style="fill:#263238;" d="M153.053,281.309c3.542,2.911,2.726,14.879-3.068,15.938
				C144.19,298.306,146.344,275.796,153.053,281.309z"/>
			<path style="fill:#EEC1BB;" d="M153.157,303.846c-1.85,5.109-6.817,7.904-11.642,7.386c-2.768-0.285-5.497-1.682-7.541-4.372
				c-1.5-1.979-2.29-3.958-2.665-6.157c-0.427-2.497-0.336-5.278-0.155-8.692c0.065-1.061,0.13-2.186,0.181-3.376
				c0.117-2.264,0.841-4.294,1.992-5.963c3.105-4.527,9.326-6.377,14.914-3.13C156.003,284.055,155.77,296.616,153.157,303.846z"/>
			<path style="fill:#263238;" d="M141.492,280.915l1.36-7.1c-2.086,0.31-4.153,0.129-5.835-0.757
				c-7.739-4.076-15.426-0.425-12.793,5.193c-4.327,0.677-3.56,6.566-1.839,10.642c2.392,5.663,5.667,8.891,8.883,7.444
				c2.682-0.548,5.208-8.683,5.211-11.94C136.484,279.488,141.492,280.915,141.492,280.915z"/>
			<path style="fill:#EEC1BB;" d="M131.504,300.807c-0.065-0.026-0.129-0.065-0.194-0.104c-0.957-0.466-1.927-1.216-2.755-2.212
				c-0.504-0.595-0.944-1.281-1.293-2.044c-0.802-1.733-0.53-3.609,0.582-4.489c0.414-0.336,0.957-0.53,1.604-0.53
				c0.595,0,1.177,0.22,1.708,0.582c1.591,1.073,2.82,3.402,3.26,5.148C135.087,299.746,133.896,301.919,131.504,300.807z"/>
			<path style="fill:#D4827D;" d="M148.852,294.324c0,0,1.104,4.147,2.587,6.286c-1.321,0.948-3.299,0.138-3.299,0.138
				L148.852,294.324z"/>
			<path style="fill:#263238;" d="M144.87,288.175c0.063,0.019,0.122,0.053,0.172,0.103c0.156,0.158,0.154,0.412-0.004,0.568
				c-1.562,1.541-3.377,1.125-3.453,1.106c-0.208-0.029-0.349-0.268-0.296-0.484c0.052-0.215,0.268-0.348,0.484-0.296
				c0.075,0.017,1.475,0.314,2.701-0.897C144.582,288.168,144.734,288.135,144.87,288.175z"/>
			<path style="fill:#263238;" d="M152.382,288.954c0.128-0.003,0.256,0.056,0.336,0.168c1.061,1.486,2.555,1.48,2.57,1.479
				c0.222-0.004,0.405,0.173,0.408,0.395c0.004,0.221-0.172,0.403-0.393,0.408c-0.001,0-0.002,0-0.002,0
				c-0.079,0.001-1.933,0.009-3.236-1.815c-0.129-0.18-0.087-0.431,0.093-0.56C152.227,288.979,152.305,288.956,152.382,288.954z"/>
			<path style="fill:#263238;" d="M136.291,273.817c0,0,9.227-9.094,19.053-3.437c0,0-2.165-0.208-3.273,0.284
				c0,0,9.47,2.195,10.237,9.595l-1.428-1.606c0,0,0.605,6.122-3.291,8.762l0.062-1.944c0,0-5.291,3.454-10.486,0.296l2.264-0.357
				c0,0-9.594-3.448-11.194-6.699C136.635,275.459,136.291,273.817,136.291,273.817z"/>
			<path style="opacity:0.1;" d="M141.516,311.233c-2.768-0.285-5.497-1.682-7.541-4.372c-1.5-1.979-2.29-3.958-2.665-6.157
				c-0.957-0.466-1.927-1.216-2.755-2.212c-0.259-1.902-0.852-4.319-0.711-6.532c0.235-3.71,2.052-7.958,2.052-7.958
				s0.963-0.963,3.433-1.329c2.964-0.44,5.187,0.272,5.187,0.272l0.66,6.416c0,0,2.484,6.519-1.293,12.638
				C137.881,301.997,140.041,306.304,141.516,311.233z"/>
			
				<path style="fill:none;stroke:#263238;stroke-width:0.3234;stroke-linecap:round;stroke-linejoin:round;stroke-miterlimit:10;" d="
				M135.096,275.292c0.33-0.083,3.308-1.89,1.984-6.766"/>
			
				<path style="fill:none;stroke:#263238;stroke-width:0.3234;stroke-linecap:round;stroke-linejoin:round;stroke-miterlimit:10;" d="
				M149.76,271.32c0,0,2.03-1.973,9.776,1.578"/>
			
				<path style="fill:none;stroke:#263238;stroke-width:0.3234;stroke-linecap:round;stroke-linejoin:round;stroke-miterlimit:10;" d="
				M160.975,277.108c0,0-0.852,5.832,2.606,5.42"/>
			
				<path style="fill:none;stroke:#263238;stroke-width:0.3234;stroke-linecap:round;stroke-linejoin:round;stroke-miterlimit:10;" d="
				M126.799,277.97c0,0-5.574,1.698-5.78-3.834"/>
			
				<path style="fill:none;stroke:#263238;stroke-width:0.3234;stroke-linecap:round;stroke-linejoin:round;stroke-miterlimit:10;" d="
				M124.564,282.949c0,0-4.247-0.309-4.66,3.737"/>
			
				<path style="fill:none;stroke:#263238;stroke-width:0.3234;stroke-linecap:round;stroke-linejoin:round;stroke-miterlimit:10;" d="
				M126.179,290.814c0,0,0.33,4.512-3.385,3.783"/>
			
				<path style="fill:none;stroke:#263238;stroke-width:0.3234;stroke-linecap:round;stroke-linejoin:round;stroke-miterlimit:10;" d="
				M145.232,267.531c0,0-5.624,1.982-6.27,5.697"/>
			
				<path style="fill:none;stroke:#263238;stroke-width:0.3234;stroke-linecap:round;stroke-linejoin:round;stroke-miterlimit:10;" d="
				M142.9,301.458c0,0,3.507-0.793,4.498,3.5"/>
			<path style="fill:#263238;" d="M144.032,294.258c-0.103,0.624-0.518,1.072-0.926,1.001c-0.408-0.071-0.655-0.635-0.551-1.26
				c0.104-0.624,0.518-1.072,0.926-1.001C143.889,293.069,144.136,293.633,144.032,294.258z"/>
			<path style="fill:#263238;" d="M152.729,294.806c-0.104,0.624-0.518,1.072-0.926,1.001c-0.408-0.071-0.655-0.635-0.551-1.26
				c0.104-0.624,0.518-1.072,0.926-1.001C152.586,293.618,152.833,294.182,152.729,294.806z"/>
		</g>
		<path style="opacity:0.1;" d="M142.835,346.96c-12.159,0-28.683-10.689-36.542-20.942c0.802-5.213,1.759-9.029,2.445-11.409
			L142.835,346.96z"/>
		<path style="opacity:0.1;" d="M150.286,339.988c0,0-11.81,13.621-14.526-5.433c-0.53-3.674-1.1-7.192-1.669-10.452
			c-1.009-5.834-2.031-10.892-2.859-14.759c-0.401-1.824-0.75-3.389-1.048-4.644c0.492-0.737,0.892-1.475,1.216-2.173
			c0.362,0.285,0.776,0.621,1.242,1.009c1.539,1.293,3.635,3.221,6.312,6.054c0.272,0.298,0.556,0.595,0.854,0.918
			c0.414,0.453,0.815,0.944,1.203,1.488c0.349,0.479,0.686,0.983,1.009,1.526c0,0,0.013,0,0.013,0.013
			c0.337,0.543,0.66,1.125,0.97,1.733c0.414,0.763,0.789,1.578,1.164,2.419C148.333,327.143,150.286,339.988,150.286,339.988z"/>
		<path style="fill:#263238;" d="M115.858,383.663c0,0,28.877-46.732,40.777-49.044c11.9-2.312,50.21,75.85,50.21,75.85
			l-16.966,5.394l-30.299-44.297c0,0-10.685,42.655-29.743,42.655c-19.852,0-21.449-30.137-21.449-30.137L115.858,383.663z"/>
		<g>
			<g>
				<path style="fill:#EEC1BB;" d="M130.031,301.541l-2.186-11.748l10.444-0.246c0,0,2.682,7.997-2.662,12.452L130.031,301.541z"/>
				<polygon style="fill:#EEC1BB;" points="130.396,281.679 138.225,283.359 138.289,289.547 127.845,289.793 				"/>
			</g>
			<g>
				<g>
					<path style="fill:#E9BFBB;" d="M116.428,314.155c4.768,4.676,9.69,9.43,14.592,13.914c2.466,2.215,4.953,4.423,7.408,6.274
						c0.609,0.459,1.217,0.887,1.781,1.268c0.559,0.377,1.108,0.696,1.444,0.868c0.141,0.075,0.25,0.108,0.058,0.087
						c-0.08-0.014-0.119-0.009-0.236-0.015c-0.158-0.013-0.228,0-0.46,0.013c-0.24,0.018-0.399,0.054-0.761,0.144
						c-0.162,0.045-0.303,0.101-0.468,0.172c-0.192,0.075-0.38,0.169-0.557,0.278c-1.065,0.681-1.261,1.266-1.388,1.508
						c-0.098,0.246-0.051,0.272-0.026,0.139c0.075-0.222,0.125-0.825,0.132-1.451c0.007-0.641-0.027-1.358-0.091-2.099
						c-0.132-1.491-0.365-3.071-0.651-4.665c-0.544-3.203-1.305-6.47-2.088-9.744c-1.619-6.536-3.41-13.166-5.248-19.711
						l5.642-2.208c3.094,6.299,5.862,12.661,8.271,19.283c1.212,3.309,2.316,6.67,3.274,10.182c0.462,1.763,0.884,3.564,1.212,5.482
						c0.161,0.964,0.297,1.959,0.378,3.037c0.073,1.09,0.115,2.218-0.096,3.694c-0.103,0.717-0.287,1.58-0.732,2.611
						c-0.476,1.021-1.19,2.343-2.998,3.469c-0.272,0.159-0.555,0.302-0.842,0.428c-0.265,0.109-0.512,0.189-0.776,0.266
						c-0.565,0.165-0.942,0.203-1.395,0.251c-0.445,0.039-0.73,0.023-1.104,0.012c-0.332-0.019-0.582-0.055-0.876-0.095
						c-1.039-0.172-1.748-0.421-2.406-0.662c-1.253-0.488-2.217-0.998-3.13-1.509c-0.906-0.51-1.729-1.04-2.526-1.572
						c-3.158-2.132-5.957-4.343-8.681-6.64c-5.448-4.585-10.47-9.355-15.393-14.445L116.428,314.155z"/>
				</g>
			</g>
			<path style="fill:#407BFF;" d="M109.707,311.697c-7.749,1.277-5.133,15.767,10.5,25.455l11.172-9.753
				c0,0-5.847-5.947-10.952-10.173C115.322,312.999,112.528,311.232,109.707,311.697z"/>
			<path style="opacity:0.7;fill:#FFFFFF;" d="M109.707,311.697c-7.749,1.277-5.133,15.767,10.5,25.455l11.172-9.753
				c0,0-5.847-5.947-10.952-10.173C115.322,312.999,112.528,311.232,109.707,311.697z"/>
		</g>
	</g>
</g>
</svg>
